<?xml version="1.0" encoding="UTF-8" standalone="no"?>
<!DOCTYPE svg PUBLIC "-//W3C//DTD SVG 1.1//EN"
 "http://www.w3.org/Graphics/SVG/1.1/DTD/svg11.dtd">
<!-- Generated by graphviz version 14.1.0 (0)
 -->
<!-- Title: ER Pages: 1 -->
<svg width="3517pt" height="2977pt"
 viewBox="0.00 0.00 3517.00 2977.00" xmlns="http://www.w3.org/2000/svg" xmlns:xlink="http://www.w3.org/1999/xlink">
<g id="graph0" class="graph" transform="scale(1 1) rotate(0) translate(4 2972.74)">
<title>ER</title>
<polygon fill="white" stroke="none" points="-4,4 -4,-2972.74 3512.65,-2972.74 3512.65,4 -4,4"/>
<!-- Users -->
<g id="node1" class="node">
<title>Users</title>
<polygon fill="#bde8f5" stroke="black" points="900.7,-1683.51 785.5,-1683.51 785.5,-1618.71 900.7,-1618.71 900.7,-1683.51"/>
<text xml:space="preserve" text-anchor="middle" x="843.1" y="-1646.91" font-family="Helvetica,sans-Serif" font-size="14.00">Users</text>
</g>
<!-- Users_user_id -->
<g id="node20" class="node">
<title>Users_user_id</title>
<ellipse fill="none" stroke="black" cx="527.98" cy="-1543.76" rx="45.68" ry="18"/>
<text xml:space="preserve" text-anchor="start" x="501.13" y="-1540.56" font-family="Helvetica,sans-Serif" font-size="14.00"> </text>
<text xml:space="preserve" text-anchor="start" x="505.02" y="-1540.56" font-family="Helvetica,sans-Serif" text-decoration="underline" font-size="14.00">user_id</text>
<text xml:space="preserve" text-anchor="start" x="550.94" y="-1540.56" font-family="Helvetica,sans-Serif" font-size="14.00"> </text>
</g>
<!-- Users&#45;&#45;Users_user_id -->
<g id="edge1" class="edge">
<title>Users&#45;&#45;Users_user_id</title>
<path fill="none" stroke="black" d="M785.3,-1631.42C720.27,-1609.27 616.72,-1573.99 562.95,-1555.67"/>
</g>
<!-- Users_username -->
<g id="node21" class="node">
<title>Users_username</title>
<ellipse fill="none" stroke="black" cx="716.18" cy="-1387.65" rx="51.42" ry="18"/>
<text xml:space="preserve" text-anchor="middle" x="716.18" y="-1383.45" font-family="Helvetica,sans-Serif" font-size="14.00">username</text>
</g>
<!-- Users&#45;&#45;Users_username -->
<g id="edge2" class="edge">
<title>Users&#45;&#45;Users_username</title>
<path fill="none" stroke="black" d="M827.28,-1618.27C800.24,-1562.13 745.98,-1449.51 724.87,-1405.69"/>
</g>
<!-- Users_email -->
<g id="node22" class="node">
<title>Users_email</title>
<ellipse fill="none" stroke="black" cx="526.71" cy="-1354.56" rx="32.1" ry="18"/>
<text xml:space="preserve" text-anchor="middle" x="526.71" y="-1350.36" font-family="Helvetica,sans-Serif" font-size="14.00">email</text>
</g>
<!-- Users&#45;&#45;Users_email -->
<g id="edge3" class="edge">
<title>Users&#45;&#45;Users_email</title>
<path fill="none" stroke="black" d="M808.03,-1618.24C740.14,-1554.6 593.05,-1416.74 543.43,-1370.24"/>
</g>
<!-- Users_role -->
<g id="node23" class="node">
<title>Users_role</title>
<ellipse fill="none" stroke="black" cx="638.67" cy="-1792.84" rx="28.8" ry="18"/>
<text xml:space="preserve" text-anchor="middle" x="638.67" y="-1788.64" font-family="Helvetica,sans-Serif" font-size="14.00">role</text>
</g>
<!-- Users&#45;&#45;Users_role -->
<g id="edge4" class="edge">
<title>Users&#45;&#45;Users_role</title>
<path fill="none" stroke="black" d="M795.69,-1683.98C752.16,-1714.16 689.82,-1757.38 658.39,-1779.17"/>
</g>
<!-- Users_shipping_address -->
<g id="node24" class="node">
<title>Users_shipping_address</title>
<ellipse fill="none" stroke="black" cx="732.65" cy="-2017.92" rx="83.28" ry="18"/>
<text xml:space="preserve" text-anchor="middle" x="732.65" y="-2013.72" font-family="Helvetica,sans-Serif" font-size="14.00">shipping_address</text>
</g>
<!-- Users&#45;&#45;Users_shipping_address -->
<g id="edge5" class="edge">
<title>Users&#45;&#45;Users_shipping_address</title>
<path fill="none" stroke="black" d="M833.2,-1683.98C810.59,-1759.07 755.76,-1941.18 738.17,-1999.57"/>
</g>
<!-- Users_phone_number -->
<g id="node25" class="node">
<title>Users_phone_number</title>
<ellipse fill="none" stroke="black" cx="589.55" cy="-1960.88" rx="72.84" ry="18"/>
<text xml:space="preserve" text-anchor="middle" x="589.55" y="-1956.68" font-family="Helvetica,sans-Serif" font-size="14.00">phone_number</text>
</g>
<!-- Users&#45;&#45;Users_phone_number -->
<g id="edge6" class="edge">
<title>Users&#45;&#45;Users_phone_number</title>
<path fill="none" stroke="black" d="M816.21,-1683.97C762.93,-1749.05 645.57,-1892.43 604.28,-1942.89"/>
</g>
<!-- Users_created_at -->
<g id="node26" class="node">
<title>Users_created_at</title>
<ellipse fill="none" stroke="black" cx="688.73" cy="-1238.33" rx="54.04" ry="18"/>
<text xml:space="preserve" text-anchor="middle" x="688.73" y="-1234.13" font-family="Helvetica,sans-Serif" font-size="14.00">created_at</text>
</g>
<!-- Users&#45;&#45;Users_created_at -->
<g id="edge7" class="edge">
<title>Users&#45;&#45;Users_created_at</title>
<path fill="none" stroke="black" d="M837.45,-1618.6C828.02,-1567.96 806.83,-1467.75 774.11,-1387.65 753.56,-1337.34 719.07,-1283.09 700.85,-1255.94"/>
</g>
<!-- Users_name -->
<g id="node61" class="node">
<title>Users_name</title>
<ellipse fill="none" stroke="black" cx="398.38" cy="-1747.19" rx="33.15" ry="18"/>
<text xml:space="preserve" text-anchor="middle" x="398.38" y="-1742.99" font-family="Helvetica,sans-Serif" font-size="14.00">name</text>
</g>
<!-- Users&#45;&#45;Users_name -->
<g id="edge42" class="edge">
<title>Users&#45;&#45;Users_name</title>
<path fill="none" stroke="black" d="M785.42,-1663.57C690.23,-1684.14 503.46,-1724.49 429.55,-1740.46"/>
</g>
<!-- Books -->
<g id="node2" class="node">
<title>Books</title>
<polygon fill="#bde8f5" stroke="black" points="2374.99,-1846.94 2259.79,-1846.94 2259.79,-1782.14 2374.99,-1782.14 2374.99,-1846.94"/>
<text xml:space="preserve" text-anchor="middle" x="2317.39" y="-1810.34" font-family="Helvetica,sans-Serif" font-size="14.00">Books</text>
</g>
<!-- Books_isbn -->
<g id="node35" class="node">
<title>Books_isbn</title>
<ellipse fill="none" stroke="black" cx="2549.08" cy="-1802.29" rx="32.11" ry="18"/>
<text xml:space="preserve" text-anchor="start" x="2532.34" y="-1799.09" font-family="Helvetica,sans-Serif" font-size="14.00"> </text>
<text xml:space="preserve" text-anchor="start" x="2536.23" y="-1799.09" font-family="Helvetica,sans-Serif" text-decoration="underline" font-size="14.00">isbn</text>
<text xml:space="preserve" text-anchor="start" x="2561.92" y="-1799.09" font-family="Helvetica,sans-Serif" font-size="14.00"> </text>
</g>
<!-- Books&#45;&#45;Books_isbn -->
<g id="edge16" class="edge">
<title>Books&#45;&#45;Books_isbn</title>
<path fill="none" stroke="black" d="M2375.26,-1811.48C2420.02,-1809.11 2480.35,-1805.93 2516.89,-1803.99"/>
</g>
<!-- Books_title -->
<g id="node36" class="node">
<title>Books_title</title>
<ellipse fill="none" stroke="black" cx="2518.73" cy="-1658.52" rx="28.8" ry="18"/>
<text xml:space="preserve" text-anchor="middle" x="2518.73" y="-1654.32" font-family="Helvetica,sans-Serif" font-size="14.00">title</text>
</g>
<!-- Books&#45;&#45;Books_title -->
<g id="edge17" class="edge">
<title>Books&#45;&#45;Books_title</title>
<path fill="none" stroke="black" d="M2359.6,-1781.83C2403.18,-1748.06 2469.15,-1696.94 2500.69,-1672.5"/>
</g>
<!-- Books_publication_year -->
<g id="node37" class="node">
<title>Books_publication_year</title>
<ellipse fill="none" stroke="black" cx="2205.41" cy="-2098.46" rx="78.06" ry="18"/>
<text xml:space="preserve" text-anchor="middle" x="2205.41" y="-2094.26" font-family="Helvetica,sans-Serif" font-size="14.00">publication_year</text>
</g>
<!-- Books&#45;&#45;Books_publication_year -->
<g id="edge18" class="edge">
<title>Books&#45;&#45;Books_publication_year</title>
<path fill="none" stroke="black" d="M2304.43,-1847.39C2280.71,-1907.53 2231.05,-2033.45 2212.55,-2080.35"/>
</g>
<!-- Books_selling_price -->
<g id="node38" class="node">
<title>Books_selling_price</title>
<ellipse fill="none" stroke="black" cx="2424.85" cy="-2042.85" rx="61.86" ry="18"/>
<text xml:space="preserve" text-anchor="middle" x="2424.85" y="-2038.65" font-family="Helvetica,sans-Serif" font-size="14.00">selling_price</text>
</g>
<!-- Books&#45;&#45;Books_selling_price -->
<g id="edge19" class="edge">
<title>Books&#45;&#45;Books_selling_price</title>
<path fill="none" stroke="black" d="M2332.79,-1847.25C2355.77,-1896.08 2398.27,-1986.38 2416.35,-2024.8"/>
</g>
<!-- Books_stock_qty -->
<g id="node39" class="node">
<title>Books_stock_qty</title>
<ellipse fill="none" stroke="black" cx="2191.27" cy="-1827.29" rx="49.33" ry="18"/>
<text xml:space="preserve" text-anchor="middle" x="2191.27" y="-1823.09" font-family="Helvetica,sans-Serif" font-size="14.00">stock_qty</text>
</g>
<!-- Books&#45;&#45;Books_stock_qty -->
<g id="edge20" class="edge">
<title>Books&#45;&#45;Books_stock_qty</title>
<path fill="none" stroke="black" d="M2259.5,-1820.39C2252.63,-1821.08 2245.69,-1821.79 2238.98,-1822.46"/>
</g>
<!-- Books_threshold -->
<g id="node40" class="node">
<title>Books_threshold</title>
<ellipse fill="none" stroke="black" cx="2101.62" cy="-1907.7" rx="48.29" ry="18"/>
<text xml:space="preserve" text-anchor="middle" x="2101.62" y="-1903.5" font-family="Helvetica,sans-Serif" font-size="14.00">threshold</text>
</g>
<!-- Books&#45;&#45;Books_threshold -->
<g id="edge21" class="edge">
<title>Books&#45;&#45;Books_threshold</title>
<path fill="none" stroke="black" d="M2259.57,-1839.5C2219.24,-1856.91 2166.94,-1879.5 2133.81,-1893.8"/>
</g>
<!-- Books_created_at -->
<g id="node41" class="node">
<title>Books_created_at</title>
<ellipse fill="none" stroke="black" cx="2267.23" cy="-2200.52" rx="54.04" ry="18"/>
<text xml:space="preserve" text-anchor="middle" x="2267.23" y="-2196.32" font-family="Helvetica,sans-Serif" font-size="14.00">created_at</text>
</g>
<!-- Books&#45;&#45;Books_created_at -->
<g id="edge22" class="edge">
<title>Books&#45;&#45;Books_created_at</title>
<path fill="none" stroke="black" d="M2316.1,-1847.1C2313.64,-1900.09 2307.13,-2008.14 2292.17,-2098.46 2287.25,-2128.15 2278.31,-2161.97 2272.58,-2182.26"/>
</g>
<!-- Authors -->
<g id="node3" class="node">
<title>Authors</title>
<polygon fill="#bde8f5" stroke="black" points="3029.49,-1336.62 2914.29,-1336.62 2914.29,-1271.82 3029.49,-1271.82 3029.49,-1336.62"/>
<text xml:space="preserve" text-anchor="middle" x="2971.89" y="-1300.02" font-family="Helvetica,sans-Serif" font-size="14.00">Authors</text>
</g>
<!-- Authors_author_id -->
<g id="node31" class="node">
<title>Authors_author_id</title>
<ellipse fill="none" stroke="black" cx="3342.91" cy="-1197.29" rx="54.04" ry="18"/>
<text xml:space="preserve" text-anchor="start" x="3309.83" y="-1194.09" font-family="Helvetica,sans-Serif" font-size="14.00"> </text>
<text xml:space="preserve" text-anchor="start" x="3313.72" y="-1194.09" font-family="Helvetica,sans-Serif" text-decoration="underline" font-size="14.00">author_id</text>
<text xml:space="preserve" text-anchor="start" x="3372.1" y="-1194.09" font-family="Helvetica,sans-Serif" font-size="14.00"> </text>
</g>
<!-- Authors&#45;&#45;Authors_author_id -->
<g id="edge12" class="edge">
<title>Authors&#45;&#45;Authors_author_id</title>
<path fill="none" stroke="black" d="M3029.86,-1287.52C3105.27,-1265.78 3235.18,-1228.34 3301.43,-1209.25"/>
</g>
<!-- Authors_full_name -->
<g id="node32" class="node">
<title>Authors_full_name</title>
<ellipse fill="none" stroke="black" cx="3159.51" cy="-956.59" rx="50.38" ry="18"/>
<text xml:space="preserve" text-anchor="middle" x="3159.51" y="-952.39" font-family="Helvetica,sans-Serif" font-size="14.00">full_name</text>
</g>
<!-- Authors&#45;&#45;Authors_full_name -->
<g id="edge13" class="edge">
<title>Authors&#45;&#45;Authors_full_name</title>
<path fill="none" stroke="black" d="M2989.54,-1271.52C3028.31,-1199.69 3119.83,-1030.11 3149.81,-974.56"/>
</g>
<!-- Publishers -->
<g id="node4" class="node">
<title>Publishers</title>
<polygon fill="#bde8f5" stroke="black" points="3151.17,-2113.21 3035.97,-2113.21 3035.97,-2048.41 3151.17,-2048.41 3151.17,-2113.21"/>
<text xml:space="preserve" text-anchor="middle" x="3093.57" y="-2076.61" font-family="Helvetica,sans-Serif" font-size="14.00">Publishers</text>
</g>
<!-- Publishers_publisher_id -->
<g id="node27" class="node">
<title>Publishers_publisher_id</title>
<ellipse fill="none" stroke="black" cx="3443.13" cy="-2205.51" rx="65.52" ry="18"/>
<text xml:space="preserve" text-anchor="start" x="3401.49" y="-2202.31" font-family="Helvetica,sans-Serif" font-size="14.00"> </text>
<text xml:space="preserve" text-anchor="start" x="3405.38" y="-2202.31" font-family="Helvetica,sans-Serif" text-decoration="underline" font-size="14.00">publisher_id</text>
<text xml:space="preserve" text-anchor="start" x="3480.88" y="-2202.31" font-family="Helvetica,sans-Serif" font-size="14.00"> </text>
</g>
<!-- Publishers&#45;&#45;Publishers_publisher_id -->
<g id="edge8" class="edge">
<title>Publishers&#45;&#45;Publishers_publisher_id</title>
<path fill="none" stroke="black" d="M3151.29,-2101.4C3222.17,-2126.68 3340.58,-2168.92 3402.53,-2191.03"/>
</g>
<!-- Publishers_name -->
<g id="node28" class="node">
<title>Publishers_name</title>
<ellipse fill="none" stroke="black" cx="3307.69" cy="-2418.94" rx="33.15" ry="18"/>
<text xml:space="preserve" text-anchor="middle" x="3307.69" y="-2414.74" font-family="Helvetica,sans-Serif" font-size="14.00">name</text>
</g>
<!-- Publishers&#45;&#45;Publishers_name -->
<g id="edge9" class="edge">
<title>Publishers&#45;&#45;Publishers_name</title>
<path fill="none" stroke="black" d="M3114.3,-2113.54C3158.9,-2183.98 3262.71,-2347.91 3296.7,-2401.59"/>
</g>
<!-- Publishers_address -->
<g id="node29" class="node">
<title>Publishers_address</title>
<ellipse fill="none" stroke="black" cx="3389.46" cy="-1822.36" rx="43.07" ry="18"/>
<text xml:space="preserve" text-anchor="middle" x="3389.46" y="-1818.16" font-family="Helvetica,sans-Serif" font-size="14.00">address</text>
</g>
<!-- Publishers&#45;&#45;Publishers_address -->
<g id="edge10" class="edge">
<title>Publishers&#45;&#45;Publishers_address</title>
<path fill="none" stroke="black" d="M3131.05,-2048.07C3194.96,-1992.25 3322.78,-1880.6 3370.72,-1838.73"/>
</g>
<!-- Publishers_phone -->
<g id="node30" class="node">
<title>Publishers_phone</title>
<ellipse fill="none" stroke="black" cx="3456.92" cy="-1996.69" rx="35.78" ry="18"/>
<text xml:space="preserve" text-anchor="middle" x="3456.92" y="-1992.49" font-family="Helvetica,sans-Serif" font-size="14.00">phone</text>
</g>
<!-- Publishers&#45;&#45;Publishers_phone -->
<g id="edge11" class="edge">
<title>Publishers&#45;&#45;Publishers_phone</title>
<path fill="none" stroke="black" d="M3151.55,-2067.39C3228.68,-2049.53 3362.48,-2018.55 3424.11,-2004.29"/>
</g>
<!-- Categories -->
<g id="node5" class="node">
<title>Categories</title>
<polygon fill="#bde8f5" stroke="black" points="2698.09,-1095.91 2582.89,-1095.91 2582.89,-1031.11 2698.09,-1031.11 2698.09,-1095.91"/>
<text xml:space="preserve" text-anchor="middle" x="2640.49" y="-1059.31" font-family="Helvetica,sans-Serif" font-size="14.00">Categories</text>
</g>
<!-- Categories_category_id -->
<g id="node33" class="node">
<title>Categories_category_id</title>
<ellipse fill="none" stroke="black" cx="2899.13" cy="-754.56" rx="63.43" ry="18"/>
<text xml:space="preserve" text-anchor="start" x="2859.05" y="-751.36" font-family="Helvetica,sans-Serif" font-size="14.00"> </text>
<text xml:space="preserve" text-anchor="start" x="2862.94" y="-751.36" font-family="Helvetica,sans-Serif" text-decoration="underline" font-size="14.00">category_id</text>
<text xml:space="preserve" text-anchor="start" x="2935.32" y="-751.36" font-family="Helvetica,sans-Serif" font-size="14.00"> </text>
</g>
<!-- Categories&#45;&#45;Categories_category_id -->
<g id="edge14" class="edge">
<title>Categories&#45;&#45;Categories_category_id</title>
<path fill="none" stroke="black" d="M2667.92,-1030.74C2722.26,-965.83 2841.98,-822.82 2884.11,-772.5"/>
</g>
<!-- Categories_name -->
<g id="node34" class="node">
<title>Categories_name</title>
<ellipse fill="none" stroke="black" cx="2615.07" cy="-675.58" rx="33.15" ry="18"/>
<text xml:space="preserve" text-anchor="middle" x="2615.07" y="-671.38" font-family="Helvetica,sans-Serif" font-size="14.00">name</text>
</g>
<!-- Categories&#45;&#45;Categories_name -->
<g id="edge15" class="edge">
<title>Categories&#45;&#45;Categories_name</title>
<path fill="none" stroke="black" d="M2638.34,-1030.77C2633.19,-952.23 2620.28,-755.08 2616.27,-693.95"/>
</g>
<!-- Carts -->
<g id="node6" class="node">
<title>Carts</title>
<polygon fill="#bde8f5" stroke="black" points="1533.94,-2271.69 1418.74,-2271.69 1418.74,-2206.89 1533.94,-2206.89 1533.94,-2271.69"/>
<text xml:space="preserve" text-anchor="middle" x="1476.34" y="-2235.09" font-family="Helvetica,sans-Serif" font-size="14.00">Carts</text>
</g>
<!-- Carts_cart_id -->
<g id="node42" class="node">
<title>Carts_cart_id</title>
<ellipse fill="none" stroke="black" cx="1345.85" cy="-2621.07" rx="43.07" ry="18"/>
<text xml:space="preserve" text-anchor="start" x="1320.96" y="-2617.87" font-family="Helvetica,sans-Serif" font-size="14.00"> </text>
<text xml:space="preserve" text-anchor="start" x="1324.84" y="-2617.87" font-family="Helvetica,sans-Serif" text-decoration="underline" font-size="14.00">cart_id</text>
<text xml:space="preserve" text-anchor="start" x="1366.87" y="-2617.87" font-family="Helvetica,sans-Serif" font-size="14.00"> </text>
</g>
<!-- Carts&#45;&#45;Carts_cart_id -->
<g id="edge23" class="edge">
<title>Carts&#45;&#45;Carts_cart_id</title>
<path fill="none" stroke="black" d="M1465.11,-2272.17C1438.52,-2349.94 1372.48,-2543.17 1352.01,-2603.07"/>
</g>
<!-- Carts_status -->
<g id="node43" class="node">
<title>Carts_status</title>
<ellipse fill="none" stroke="black" cx="1234.37" cy="-2500.47" rx="34.72" ry="18"/>
<text xml:space="preserve" text-anchor="middle" x="1234.37" y="-2496.27" font-family="Helvetica,sans-Serif" font-size="14.00">status</text>
</g>
<!-- Carts&#45;&#45;Carts_status -->
<g id="edge24" class="edge">
<title>Carts&#45;&#45;Carts_status</title>
<path fill="none" stroke="black" d="M1445.94,-2272.11C1393.77,-2328.42 1289.02,-2441.48 1249.73,-2483.89"/>
</g>
<!-- Carts_created_at -->
<g id="node44" class="node">
<title>Carts_created_at</title>
<ellipse fill="none" stroke="black" cx="1498.71" cy="-2651.83" rx="54.04" ry="18"/>
<text xml:space="preserve" text-anchor="middle" x="1498.71" y="-2647.63" font-family="Helvetica,sans-Serif" font-size="14.00">created_at</text>
</g>
<!-- Carts&#45;&#45;Carts_created_at -->
<g id="edge25" class="edge">
<title>Carts&#45;&#45;Carts_created_at</title>
<path fill="none" stroke="black" d="M1478.12,-2272.01C1482.59,-2354.53 1494.23,-2569.13 1497.71,-2633.39"/>
</g>
<!-- Customer_Orders -->
<g id="node7" class="node">
<title>Customer_Orders</title>
<polygon fill="#bde8f5" stroke="black" points="1669.16,-1292.37 1514.71,-1292.37 1514.71,-1227.57 1669.16,-1227.57 1669.16,-1292.37"/>
<text xml:space="preserve" text-anchor="middle" x="1591.94" y="-1255.77" font-family="Helvetica,sans-Serif" font-size="14.00">Customer_Orders</text>
</g>
<!-- Customer_Orders_order_id -->
<g id="node45" class="node">
<title>Customer_Orders_order_id</title>
<ellipse fill="none" stroke="black" cx="1667.03" cy="-965.1" rx="49.34" ry="18"/>
<text xml:space="preserve" text-anchor="start" x="1637.45" y="-961.9" font-family="Helvetica,sans-Serif" font-size="14.00"> </text>
<text xml:space="preserve" text-anchor="start" x="1641.34" y="-961.9" font-family="Helvetica,sans-Serif" text-decoration="underline" font-size="14.00">order_id</text>
<text xml:space="preserve" text-anchor="start" x="1692.71" y="-961.9" font-family="Helvetica,sans-Serif" font-size="14.00"> </text>
</g>
<!-- Customer_Orders&#45;&#45;Customer_Orders_order_id -->
<g id="edge26" class="edge">
<title>Customer_Orders&#45;&#45;Customer_Orders_order_id</title>
<path fill="none" stroke="black" d="M1600.26,-1227.29C1616.07,-1165.21 1649.96,-1032.1 1662.36,-983.42"/>
</g>
<!-- Customer_Orders_order_date -->
<g id="node46" class="node">
<title>Customer_Orders_order_date</title>
<ellipse fill="none" stroke="black" cx="1332.99" cy="-1140.73" rx="55.09" ry="18"/>
<text xml:space="preserve" text-anchor="middle" x="1332.99" y="-1136.53" font-family="Helvetica,sans-Serif" font-size="14.00">order_date</text>
</g>
<!-- Customer_Orders&#45;&#45;Customer_Orders_order_date -->
<g id="edge27" class="edge">
<title>Customer_Orders&#45;&#45;Customer_Orders_order_date</title>
<path fill="none" stroke="black" d="M1520.49,-1227.08C1469.75,-1203.71 1404,-1173.43 1365.37,-1155.64"/>
</g>
<!-- Customer_Orders_total_price -->
<g id="node47" class="node">
<title>Customer_Orders_total_price</title>
<ellipse fill="none" stroke="black" cx="1489.02" cy="-949.49" rx="52.99" ry="18"/>
<text xml:space="preserve" text-anchor="middle" x="1489.02" y="-945.29" font-family="Helvetica,sans-Serif" font-size="14.00">total_price</text>
</g>
<!-- Customer_Orders&#45;&#45;Customer_Orders_total_price -->
<g id="edge28" class="edge">
<title>Customer_Orders&#45;&#45;Customer_Orders_total_price</title>
<path fill="none" stroke="black" d="M1581.12,-1227.33C1559.55,-1162.25 1511.81,-1018.25 1495.02,-967.57"/>
</g>
<!-- Customer_Orders_payment_last4 -->
<g id="node48" class="node">
<title>Customer_Orders_payment_last4</title>
<ellipse fill="none" stroke="black" cx="1350.18" cy="-950.67" rx="70.74" ry="18"/>
<text xml:space="preserve" text-anchor="middle" x="1350.18" y="-946.47" font-family="Helvetica,sans-Serif" font-size="14.00">payment_last4</text>
</g>
<!-- Customer_Orders&#45;&#45;Customer_Orders_payment_last4 -->
<g id="edge29" class="edge">
<title>Customer_Orders&#45;&#45;Customer_Orders_payment_last4</title>
<path fill="none" stroke="black" d="M1566.29,-1227.17C1515.5,-1162.18 1403.59,-1019.02 1364.22,-968.64"/>
</g>
<!-- Customer_Orders_status -->
<g id="node49" class="node">
<title>Customer_Orders_status</title>
<ellipse fill="none" stroke="black" cx="1771.41" cy="-1072.42" rx="34.72" ry="18"/>
<text xml:space="preserve" text-anchor="middle" x="1771.41" y="-1068.22" font-family="Helvetica,sans-Serif" font-size="14.00">status</text>
</g>
<!-- Customer_Orders&#45;&#45;Customer_Orders_status -->
<g id="edge30" class="edge">
<title>Customer_Orders&#45;&#45;Customer_Orders_status</title>
<path fill="none" stroke="black" d="M1623.2,-1227.31C1661.97,-1186.79 1726.52,-1119.34 1755.95,-1088.59"/>
</g>
<!-- Sales_Transactions -->
<g id="node8" class="node">
<title>Sales_Transactions</title>
<polygon fill="#bde8f5" stroke="black" points="1791.1,-399.11 1624.94,-399.11 1624.94,-334.31 1791.1,-334.31 1791.1,-399.11"/>
<text xml:space="preserve" text-anchor="middle" x="1708.02" y="-362.51" font-family="Helvetica,sans-Serif" font-size="14.00">Sales_Transactions</text>
</g>
<!-- Sales_Transactions_sale_id -->
<g id="node50" class="node">
<title>Sales_Transactions_sale_id</title>
<ellipse fill="none" stroke="black" cx="1774.21" cy="-18" rx="44.64" ry="18"/>
<text xml:space="preserve" text-anchor="start" x="1748.14" y="-14.8" font-family="Helvetica,sans-Serif" font-size="14.00"> </text>
<text xml:space="preserve" text-anchor="start" x="1752.03" y="-14.8" font-family="Helvetica,sans-Serif" text-decoration="underline" font-size="14.00">sale_id</text>
<text xml:space="preserve" text-anchor="start" x="1796.4" y="-14.8" font-family="Helvetica,sans-Serif" font-size="14.00"> </text>
</g>
<!-- Sales_Transactions&#45;&#45;Sales_Transactions_sale_id -->
<g id="edge31" class="edge">
<title>Sales_Transactions&#45;&#45;Sales_Transactions_sale_id</title>
<path fill="none" stroke="black" d="M1714.25,-333.9C1727.89,-262.02 1760.06,-92.55 1770.72,-36.42"/>
</g>
<!-- Sales_Transactions_sale_date -->
<g id="node51" class="node">
<title>Sales_Transactions_sale_date</title>
<ellipse fill="none" stroke="black" cx="1472.04" cy="-67.35" rx="50.39" ry="18"/>
<text xml:space="preserve" text-anchor="middle" x="1472.04" y="-63.15" font-family="Helvetica,sans-Serif" font-size="14.00">sale_date</text>
</g>
<!-- Sales_Transactions&#45;&#45;Sales_Transactions_sale_date -->
<g id="edge32" class="edge">
<title>Sales_Transactions&#45;&#45;Sales_Transactions_sale_date</title>
<path fill="none" stroke="black" d="M1682.09,-333.82C1632.16,-270.48 1524.23,-133.56 1485.9,-84.92"/>
</g>
<!-- Sales_Transactions_amount -->
<g id="node52" class="node">
<title>Sales_Transactions_amount</title>
<ellipse fill="none" stroke="black" cx="2013.24" cy="-118.99" rx="40.98" ry="18"/>
<text xml:space="preserve" text-anchor="middle" x="2013.24" y="-114.79" font-family="Helvetica,sans-Serif" font-size="14.00">amount</text>
</g>
<!-- Sales_Transactions&#45;&#45;Sales_Transactions_amount -->
<g id="edge33" class="edge">
<title>Sales_Transactions&#45;&#45;Sales_Transactions_amount</title>
<path fill="none" stroke="black" d="M1748.55,-333.81C1814.87,-279.99 1944.14,-175.07 1993.46,-135.04"/>
</g>
<!-- Replenishment_Orders -->
<g id="node9" class="node">
<title>Replenishment_Orders</title>
<polygon fill="#bde8f5" stroke="black" points="2808.16,-2610.97 2621,-2610.97 2621,-2546.17 2808.16,-2546.17 2808.16,-2610.97"/>
<text xml:space="preserve" text-anchor="middle" x="2714.58" y="-2574.37" font-family="Helvetica,sans-Serif" font-size="14.00">Replenishment_Orders</text>
</g>
<!-- Replenishment_Orders_repl_order_id -->
<g id="node53" class="node">
<title>Replenishment_Orders_repl_order_id</title>
<ellipse fill="none" stroke="black" cx="2721.5" cy="-2950.74" rx="70.22" ry="18"/>
<text xml:space="preserve" text-anchor="start" x="2676.36" y="-2947.54" font-family="Helvetica,sans-Serif" font-size="14.00"> </text>
<text xml:space="preserve" text-anchor="start" x="2680.25" y="-2947.54" font-family="Helvetica,sans-Serif" text-decoration="underline" font-size="14.00">repl_order_id</text>
<text xml:space="preserve" text-anchor="start" x="2762.75" y="-2947.54" font-family="Helvetica,sans-Serif" font-size="14.00"> </text>
</g>
<!-- Replenishment_Orders&#45;&#45;Replenishment_Orders_repl_order_id -->
<g id="edge34" class="edge">
<title>Replenishment_Orders&#45;&#45;Replenishment_Orders_repl_order_id</title>
<path fill="none" stroke="black" d="M2715.19,-2611.27C2716.6,-2687.19 2720.06,-2873.4 2721.16,-2932.46"/>
</g>
<!-- Replenishment_Orders_order_date -->
<g id="node54" class="node">
<title>Replenishment_Orders_order_date</title>
<ellipse fill="none" stroke="black" cx="2536.17" cy="-2934.63" rx="55.09" ry="18"/>
<text xml:space="preserve" text-anchor="middle" x="2536.17" y="-2930.43" font-family="Helvetica,sans-Serif" font-size="14.00">order_date</text>
</g>
<!-- Replenishment_Orders&#45;&#45;Replenishment_Orders_order_date -->
<g id="edge35" class="edge">
<title>Replenishment_Orders&#45;&#45;Replenishment_Orders_order_date</title>
<path fill="none" stroke="black" d="M2698.12,-2611.43C2661.37,-2684.77 2573.66,-2859.81 2545.23,-2916.55"/>
</g>
<!-- Replenishment_Orders_qty -->
<g id="node55" class="node">
<title>Replenishment_Orders_qty</title>
<ellipse fill="none" stroke="black" cx="2917.89" cy="-2880.87" rx="28.8" ry="18"/>
<text xml:space="preserve" text-anchor="middle" x="2917.89" y="-2876.67" font-family="Helvetica,sans-Serif" font-size="14.00">qty</text>
</g>
<!-- Replenishment_Orders&#45;&#45;Replenishment_Orders_qty -->
<g id="edge36" class="edge">
<title>Replenishment_Orders&#45;&#45;Replenishment_Orders_qty</title>
<path fill="none" stroke="black" d="M2736.53,-2611.21C2779.66,-2675.33 2874.07,-2815.71 2906.61,-2864.09"/>
</g>
<!-- Replenishment_Orders_status -->
<g id="node56" class="node">
<title>Replenishment_Orders_status</title>
<ellipse fill="none" stroke="black" cx="3080.35" cy="-2732.55" rx="34.72" ry="18"/>
<text xml:space="preserve" text-anchor="middle" x="3080.35" y="-2728.35" font-family="Helvetica,sans-Serif" font-size="14.00">status</text>
</g>
<!-- Replenishment_Orders&#45;&#45;Replenishment_Orders_status -->
<g id="edge37" class="edge">
<title>Replenishment_Orders&#45;&#45;Replenishment_Orders_status</title>
<path fill="none" stroke="black" d="M2792.6,-2611.41C2874.42,-2645.86 2998.55,-2698.11 3053.06,-2721.06"/>
</g>
<!-- Categorized_As -->
<g id="node10" class="node">
<title>Categorized_As</title>
<polygon fill="#bb8ed0" stroke="black" points="2428.09,-1479.2 2285.96,-1446.8 2428.09,-1414.4 2570.22,-1446.8 2428.09,-1479.2"/>
<text xml:space="preserve" text-anchor="middle" x="2428.09" y="-1442.6" font-family="Helvetica,sans-Serif" font-size="14.00">Categorized_As</text>
</g>
<!-- Categorized_As&#45;&#45;Books -->
<g id="edge46" class="edge">
<title>Categorized_As&#45;&#45;Books</title>
<path fill="none" stroke="black" stroke-width="3" d="M2418.84,-1477.52C2398.19,-1546.13 2348.45,-1711.35 2327.24,-1781.81"/>
<text xml:space="preserve" text-anchor="middle" x="2368.2" y="-1633.17" font-family="Times,serif" font-size="14.00">N</text>
</g>
<!-- Categorized_As&#45;&#45;Categories -->
<g id="edge45" class="edge">
<title>Categorized_As&#45;&#45;Categories</title>
<path fill="none" stroke="black" d="M2444.23,-1417.67C2483.05,-1347.62 2581.45,-1170.05 2622.29,-1096.36"/>
<text xml:space="preserve" text-anchor="middle" x="2529" y="-1262.58" font-family="Times,serif" font-size="14.00">1</text>
</g>
<!-- Published_By -->
<g id="node11" class="node">
<title>Published_By</title>
<polygon fill="#bb8ed0" stroke="black" points="2721.94,-1959.53 2593.74,-1927.13 2721.94,-1894.73 2850.14,-1927.13 2721.94,-1959.53"/>
<text xml:space="preserve" text-anchor="middle" x="2721.94" y="-1922.93" font-family="Helvetica,sans-Serif" font-size="14.00">Published_By</text>
</g>
<!-- Published_By&#45;&#45;Books -->
<g id="edge48" class="edge">
<title>Published_By&#45;&#45;Books</title>
<path fill="none" stroke="black" stroke-width="3" d="M2660.06,-1909.9C2582.59,-1888.34 2450.9,-1851.7 2375.33,-1830.66"/>
<text xml:space="preserve" text-anchor="middle" x="2511.93" y="-1874.29" font-family="Times,serif" font-size="14.00">N</text>
</g>
<!-- Published_By&#45;&#45;Publishers -->
<g id="edge47" class="edge">
<title>Published_By&#45;&#45;Publishers</title>
<path fill="none" stroke="black" d="M2771.29,-1947.53C2839.7,-1975.83 2963.12,-2026.86 3035.76,-2056.9"/>
<text xml:space="preserve" text-anchor="middle" x="2898.44" y="-2005.76" font-family="Times,serif" font-size="14.00">1</text>
</g>
<!-- Book_Authors -->
<g id="node12" class="node">
<title>Book_Authors</title>
<polygon fill="#bb8ed0" stroke="black" points="2631.65,-1567.49 2501.13,-1535.09 2631.65,-1502.69 2762.17,-1535.09 2631.65,-1567.49"/>
<text xml:space="preserve" text-anchor="middle" x="2631.65" y="-1530.89" font-family="Helvetica,sans-Serif" font-size="14.00">Book_Authors</text>
</g>
<!-- Book_Authors&#45;&#45;Books -->
<g id="edge50" class="edge">
<title>Book_Authors&#45;&#45;Books</title>
<path fill="none" stroke="black" d="M2598.64,-1559.76C2570.51,-1581.11 2529.34,-1613.19 2495.08,-1643.14 2442.32,-1689.26 2384.47,-1746.38 2349.55,-1781.64"/>
<text xml:space="preserve" text-anchor="middle" x="2464.4" y="-1670.21" font-family="Times,serif" font-size="14.00">N</text>
</g>
<!-- Book_Authors&#45;&#45;Authors -->
<g id="edge49" class="edge">
<title>Book_Authors&#45;&#45;Authors</title>
<path fill="none" stroke="black" d="M2667.1,-1511.04C2728.37,-1469.46 2854.16,-1384.11 2923.45,-1337.09"/>
<text xml:space="preserve" text-anchor="middle" x="2786.04" y="-1430.3" font-family="Times,serif" font-size="14.00">M</text>
</g>
<!-- Places -->
<g id="node13" class="node">
<title>Places</title>
<polygon fill="#bb8ed0" stroke="black" points="1194.9,-1481.48 1110.08,-1449.08 1194.9,-1416.68 1279.71,-1449.08 1194.9,-1481.48"/>
<text xml:space="preserve" text-anchor="middle" x="1194.9" y="-1444.88" font-family="Helvetica,sans-Serif" font-size="14.00">Places</text>
</g>
<!-- Places&#45;&#45;Users -->
<g id="edge51" class="edge">
<title>Places&#45;&#45;Users</title>
<path fill="none" stroke="black" d="M1160.53,-1468.82C1100.01,-1503.57 973.9,-1575.99 900.15,-1618.35"/>
<text xml:space="preserve" text-anchor="middle" x="1031.8" y="-1544.93" font-family="Times,serif" font-size="14.00">1</text>
</g>
<!-- Places&#45;&#45;Customer_Orders -->
<g id="edge52" class="edge">
<title>Places&#45;&#45;Customer_Orders</title>
<path fill="none" stroke="black" stroke-width="3" d="M1232.97,-1430.95C1299.74,-1399.15 1438.83,-1332.9 1522.92,-1292.85"/>
<text xml:space="preserve" text-anchor="middle" x="1366.39" y="-1369.19" font-family="Times,serif" font-size="14.00">N</text>
</g>
<!-- Cart_Items -->
<g id="node14" class="node">
<title>Cart_Items</title>
<polygon fill="#bb8ed0" stroke="black" points="1897.15,-2138.64 1786.02,-2106.24 1897.15,-2073.84 2008.28,-2106.24 1897.15,-2138.64"/>
<text xml:space="preserve" text-anchor="middle" x="1897.15" y="-2102.04" font-family="Helvetica,sans-Serif" font-size="14.00">Cart_Items</text>
</g>
<!-- Cart_Items&#45;&#45;Books -->
<g id="edge54" class="edge">
<title>Cart_Items&#45;&#45;Books</title>
<path fill="none" stroke="black" d="M1930.47,-2083.11C2004.83,-2031.5 2184.45,-1906.82 2270.24,-1847.27"/>
<text xml:space="preserve" text-anchor="middle" x="2089.84" y="-1972.37" font-family="Times,serif" font-size="14.00">M</text>
</g>
<!-- Cart_Items&#45;&#45;Carts -->
<g id="edge53" class="edge">
<title>Cart_Items&#45;&#45;Carts</title>
<path fill="none" stroke="black" d="M1843,-2123.37C1763.53,-2148.49 1615.93,-2195.16 1534.33,-2220.96"/>
<text xml:space="preserve" text-anchor="middle" x="1684.41" y="-2176.11" font-family="Times,serif" font-size="14.00">N</text>
</g>
<!-- Cart_Items_qty -->
<g id="node57" class="node">
<title>Cart_Items_qty</title>
<ellipse fill="none" stroke="black" cx="1870.25" cy="-2472.04" rx="28.8" ry="18"/>
<text xml:space="preserve" text-anchor="middle" x="1870.25" y="-2467.84" font-family="Helvetica,sans-Serif" font-size="14.00">qty</text>
</g>
<!-- Cart_Items&#45;&#45;Cart_Items_qty -->
<g id="edge38" class="edge">
<title>Cart_Items&#45;&#45;Cart_Items_qty</title>
<path fill="none" stroke="black" d="M1894.78,-2138.39C1889.31,-2212.83 1875.9,-2395.17 1871.6,-2453.66"/>
</g>
<!-- Customer_Order_Items -->
<g id="node15" class="node">
<title>Customer_Order_Items</title>
<polygon fill="#bb8ed0" stroke="black" points="1962.79,-1558.02 1774.22,-1525.62 1962.79,-1493.22 2151.35,-1525.62 1962.79,-1558.02"/>
<text xml:space="preserve" text-anchor="middle" x="1962.79" y="-1521.42" font-family="Helvetica,sans-Serif" font-size="14.00">Customer_Order_Items</text>
</g>
<!-- Customer_Order_Items&#45;&#45;Books -->
<g id="edge56" class="edge">
<title>Customer_Order_Items&#45;&#45;Books</title>
<path fill="none" stroke="black" d="M1995.83,-1552.54C2061.08,-1605.7 2206.26,-1724 2277.04,-1781.66"/>
<text xml:space="preserve" text-anchor="middle" x="2128.14" y="-1669.61" font-family="Times,serif" font-size="14.00">M</text>
</g>
<!-- Customer_Order_Items&#45;&#45;Customer_Orders -->
<g id="edge55" class="edge">
<title>Customer_Order_Items&#45;&#45;Customer_Orders</title>
<path fill="none" stroke="black" d="M1925.87,-1499.18C1857.63,-1450.29 1711.93,-1345.93 1637.6,-1292.68"/>
<text xml:space="preserve" text-anchor="middle" x="1778.96" y="-1401.76" font-family="Times,serif" font-size="14.00">N</text>
</g>
<!-- Customer_Order_Items_book_name_snapshot -->
<g id="node58" class="node">
<title>Customer_Order_Items_book_name_snapshot</title>
<ellipse fill="none" stroke="black" cx="1747.83" cy="-1762.18" rx="102.08" ry="18"/>
<text xml:space="preserve" text-anchor="middle" x="1747.83" y="-1757.98" font-family="Helvetica,sans-Serif" font-size="14.00">book_name_snapshot</text>
</g>
<!-- Customer_Order_Items&#45;&#45;Customer_Order_Items_book_name_snapshot -->
<g id="edge39" class="edge">
<title>Customer_Order_Items&#45;&#45;Customer_Order_Items_book_name_snapshot</title>
<path fill="none" stroke="black" d="M1937.29,-1553.69C1892.69,-1602.76 1801.73,-1702.85 1764.39,-1743.95"/>
</g>
<!-- Customer_Order_Items_unit_price_snapshot -->
<g id="node59" class="node">
<title>Customer_Order_Items_unit_price_snapshot</title>
<ellipse fill="none" stroke="black" cx="2108.73" cy="-1247.81" rx="93.72" ry="18"/>
<text xml:space="preserve" text-anchor="middle" x="2108.73" y="-1243.61" font-family="Helvetica,sans-Serif" font-size="14.00">unit_price_snapshot</text>
</g>
<!-- Customer_Order_Items&#45;&#45;Customer_Order_Items_unit_price_snapshot -->
<g id="edge40" class="edge">
<title>Customer_Order_Items&#45;&#45;Customer_Order_Items_unit_price_snapshot</title>
<path fill="none" stroke="black" d="M1978.55,-1495.63C2008.84,-1437.96 2074.39,-1313.19 2099.07,-1266.21"/>
</g>
<!-- Customer_Order_Items_qty -->
<g id="node60" class="node">
<title>Customer_Order_Items_qty</title>
<ellipse fill="none" stroke="black" cx="1728.66" cy="-1603.74" rx="28.8" ry="18"/>
<text xml:space="preserve" text-anchor="middle" x="1728.66" y="-1599.54" font-family="Helvetica,sans-Serif" font-size="14.00">qty</text>
</g>
<!-- Customer_Order_Items&#45;&#45;Customer_Order_Items_qty -->
<g id="edge41" class="edge">
<title>Customer_Order_Items&#45;&#45;Customer_Order_Items_qty</title>
<path fill="none" stroke="black" d="M1897.88,-1547.28C1850.52,-1563.08 1788.83,-1583.67 1754.54,-1595.11"/>
</g>
<!-- Generates -->
<g id="node16" class="node">
<title>Generates</title>
<polygon fill="#bb8ed0" stroke="black" points="1694.15,-792.48 1586.09,-760.08 1694.15,-727.68 1802.2,-760.08 1694.15,-792.48"/>
<text xml:space="preserve" text-anchor="middle" x="1694.15" y="-755.88" font-family="Helvetica,sans-Serif" font-size="14.00">Generates</text>
</g>
<!-- Generates&#45;&#45;Customer_Orders -->
<g id="edge57" class="edge">
<title>Generates&#45;&#45;Customer_Orders</title>
<path fill="none" stroke="black" stroke-width="3" d="M1679.35,-788.33C1659.9,-827.03 1626.41,-899.24 1611.35,-965.1 1590.03,-1058.38 1589.47,-1172.25 1590.74,-1227.2"/>
<text xml:space="preserve" text-anchor="middle" x="1600.51" y="-1006.8" font-family="Times,serif" font-size="14.00">1</text>
</g>
<!-- Generates&#45;&#45;Sales_Transactions -->
<g id="edge58" class="edge">
<title>Generates&#45;&#45;Sales_Transactions</title>
<path fill="none" stroke="black" d="M1695.29,-727.55C1697.9,-653.65 1704.24,-473.76 1706.86,-399.55"/>
<text xml:space="preserve" text-anchor="middle" x="1697.57" y="-567.86" font-family="Times,serif" font-size="14.00">1</text>
</g>
<!-- Replenishment_Books -->
<g id="node17" class="node">
<title>Replenishment_Books</title>
<polygon fill="#bb8ed0" stroke="black" points="2511.68,-2262.39 2329.27,-2229.99 2511.68,-2197.59 2694.08,-2229.99 2511.68,-2262.39"/>
<text xml:space="preserve" text-anchor="middle" x="2511.68" y="-2225.79" font-family="Helvetica,sans-Serif" font-size="14.00">Replenishment_Books</text>
</g>
<!-- Replenishment_Books&#45;&#45;Books -->
<g id="edge59" class="edge">
<title>Replenishment_Books&#45;&#45;Books</title>
<path fill="none" stroke="black" stroke-width="3" d="M2480.51,-2202.65C2444.25,-2168.93 2385.54,-2108.01 2355.62,-2042.85 2325.76,-1977.84 2318.94,-1892.85 2317.56,-1847.1"/>
<text xml:space="preserve" text-anchor="middle" x="2352.07" y="-2046.95" font-family="Times,serif" font-size="14.00">1</text>
</g>
<!-- Replenishment_Books&#45;&#45;Replenishment_Orders -->
<g id="edge60" class="edge">
<title>Replenishment_Books&#45;&#45;Replenishment_Orders</title>
<path fill="none" stroke="black" d="M2528.98,-2259.71C2566.74,-2324.58 2656.29,-2478.43 2695.57,-2545.91"/>
<text xml:space="preserve" text-anchor="middle" x="2606.65" y="-2406.03" font-family="Times,serif" font-size="14.00">N</text>
</g>
<!-- Replenishment_Publishers -->
<g id="node18" class="node">
<title>Replenishment_Publishers</title>
<polygon fill="#bb8ed0" stroke="black" points="3057.05,-2471.59 2848.31,-2439.19 3057.05,-2406.79 3265.79,-2439.19 3057.05,-2471.59"/>
<text xml:space="preserve" text-anchor="middle" x="3057.05" y="-2434.99" font-family="Helvetica,sans-Serif" font-size="14.00">Replenishment_Publishers</text>
</g>
<!-- Replenishment_Publishers&#45;&#45;Publishers -->
<g id="edge61" class="edge">
<title>Replenishment_Publishers&#45;&#45;Publishers</title>
<path fill="none" stroke="black" stroke-width="3" d="M3060.32,-2407.07C3067.24,-2339.21 3083.27,-2181.87 3090.24,-2113.5"/>
<text xml:space="preserve" text-anchor="middle" x="3071.76" y="-2264.67" font-family="Times,serif" font-size="14.00">1</text>
</g>
<!-- Replenishment_Publishers&#45;&#45;Replenishment_Orders -->
<g id="edge62" class="edge">
<title>Replenishment_Publishers&#45;&#45;Replenishment_Orders</title>
<path fill="none" stroke="black" d="M2998.57,-2462.99C2942.59,-2485.77 2857.68,-2520.33 2795.28,-2545.73"/>
<text xml:space="preserve" text-anchor="middle" x="2894.28" y="-2507.58" font-family="Times,serif" font-size="14.00">N</text>
</g>
<!-- Has_Cart -->
<g id="node19" class="node">
<title>Has_Cart</title>
<polygon fill="#bb8ed0" stroke="black" points="1129.93,-2009.43 1028.08,-1977.03 1129.93,-1944.63 1231.77,-1977.03 1129.93,-2009.43"/>
<text xml:space="preserve" text-anchor="middle" x="1129.93" y="-1972.83" font-family="Helvetica,sans-Serif" font-size="14.00">Has_Cart</text>
</g>
<!-- Has_Cart&#45;&#45;Users -->
<g id="edge63" class="edge">
<title>Has_Cart&#45;&#45;Users</title>
<path fill="none" stroke="black" d="M1107.42,-1951.46C1055.78,-1892.78 928.86,-1748.56 871.76,-1683.67"/>
<text xml:space="preserve" text-anchor="middle" x="988.14" y="-1824.1" font-family="Times,serif" font-size="14.00">1</text>
</g>
<!-- Has_Cart&#45;&#45;Carts -->
<g id="edge64" class="edge">
<title>Has_Cart&#45;&#45;Carts</title>
<path fill="none" stroke="black" stroke-width="3" d="M1160.37,-2000.08C1222.03,-2046.76 1361.88,-2152.63 1433.03,-2206.5"/>
<text xml:space="preserve" text-anchor="middle" x="1288.09" y="-2104.79" font-family="Times,serif" font-size="14.00">N</text>
</g>
<!-- Users_name_first_name -->
<g id="node62" class="node">
<title>Users_name_first_name</title>
<ellipse fill="none" stroke="black" cx="127.6" cy="-2017.77" rx="53.5" ry="18"/>
<text xml:space="preserve" text-anchor="middle" x="127.6" y="-2013.57" font-family="Helvetica,sans-Serif" font-size="14.00">first_name</text>
</g>
<!-- Users_name&#45;&#45;Users_name_first_name -->
<g id="edge43" class="edge">
<title>Users_name&#45;&#45;Users_name_first_name</title>
<path fill="none" stroke="black" d="M382.25,-1763.31C334.55,-1810.98 194.38,-1951.04 145.03,-2000.35"/>
</g>
<!-- Users_name_last_name -->
<g id="node63" class="node">
<title>Users_name_last_name</title>
<ellipse fill="none" stroke="black" cx="52.99" cy="-1587.26" rx="52.99" ry="18"/>
<text xml:space="preserve" text-anchor="middle" x="52.99" y="-1583.06" font-family="Helvetica,sans-Serif" font-size="14.00">last_name</text>
</g>
<!-- Users_name&#45;&#45;Users_name_last_name -->
<g id="edge44" class="edge">
<title>Users_name&#45;&#45;Users_name_last_name</title>
<path fill="none" stroke="black" d="M372.7,-1735.3C310.71,-1706.6 153,-1633.57 85,-1602.08"/>
</g>
</g>
</svg>
